<?xml version="1.0" encoding="utf-8"?>
<!-- Generator: Adobe Illustrator 15.0.0, SVG Export Plug-In . SVG Version: 6.00 Build 0)  -->
<!DOCTYPE svg PUBLIC "-//W3C//DTD SVG 1.1//EN" "http://www.w3.org/Graphics/SVG/1.1/DTD/svg11.dtd">
<svg version="1.1" id="Capa_1" xmlns="http://www.w3.org/2000/svg" xmlns:xlink="http://www.w3.org/1999/xlink" x="0px" y="0px"
	 width="79.219px" height="79.219px" viewBox="0 0 79.219 79.219" enable-background="new 0 0 79.219 79.219" xml:space="preserve">
<g>
	<circle fill="#262626" cx="39.609" cy="39.609" r="37.109"/>
</g>
<g>
	<path fill="#F7BE72" d="M39.609,79.219C17.769,79.219,0,61.45,0,39.609S17.769,0,39.609,0s39.609,17.769,39.609,39.609
		S61.45,79.219,39.609,79.219z M39.609,5C20.526,5,5,20.526,5,39.609s15.526,34.609,34.609,34.609s34.609-15.526,34.609-34.609
		S58.693,5,39.609,5z"/>
</g>
<g>
	<path fill="#F7BE72" d="M65.172,41.938h-28v-27c0-1.381,1.119-2.5,2.5-2.5s2.5,1.119,2.5,2.5v22h23c1.381,0,2.5,1.119,2.5,2.5
		S66.553,41.938,65.172,41.938z"/>
</g>
</svg>
