<?xml version="1.0"?>
<svg xmlns="http://www.w3.org/2000/svg" height="512px" viewBox="0 -12 512.00025 512" width="512px"><g><path d="m57.007812 431.238281c76.082032 76.082031 199.613282 76.089844 275.703126 0l148.453124-148.453125-84.832031-84.832031-148.453125 148.453125c-29.25 29.253906-76.785156 29.253906-106.039062 0-29.234375-29.234375-29.234375-76.800781 0-106.039062l148.457031-148.453126-84.832031-84.832031-148.457032 148.457031c-76.011718 76.007813-76.011718 199.6875 0 275.699219zm339.324219-190.871093 42.414063 42.417968-42.414063 42.414063-42.414062-42.414063zm-190.871093-190.867188 42.417968 42.414062-42.417968 42.414063-42.414063-42.414063zm-127.246094 127.246094 63.625-63.625 42.414062 42.414062-63.621094 63.625c-40.929687 40.929688-40.929687 107.523438 0 148.453125 40.96875 40.972657 107.480469 40.976563 148.453126 0l63.625-63.621093 42.414062 42.414062-63.625 63.625c-64.359375 64.363281-168.917969 64.367188-233.285156 0-64.316406-64.316406-64.316406-168.96875 0-233.285156zm0 0" data-original="#000000" class="active-path" data-old_color="#000000" fill="#FFFFFF"/><path d="m302.101562 43.3125 62.085938 62.085938-62.980469 62.980468 209.894531-43.3125-62.082031-62.085937 62.980469-62.980469zm148.457032 63.621094-57.320313 11.828125 13.363281-13.367188-43.953124-43.953125 57.320312-11.828125-13.367188 13.367188zm0 0" data-original="#000000" class="active-path" data-old_color="#000000" fill="#FFFFFF"/></g> </svg>
